<svg height="20" viewBox="0 0 64 64" width="20" xmlns="http://www.w3.org/2000/svg"><path d="m24 53a3 3 0 1 0 3 3 3 3 0 0 0 -3-3zm0 4a1 1 0 1 1 1-1 1 1 0 0 1 -1 1z"/><path d="m18 29h4v2h-4z"/><path d="m45 32a14.713 14.713 0 0 0 -2 .16v-27.16a3.009 3.009 0 0 0 -3-3h-32a3.009 3.009 0 0 0 -3 3v54a3.009 3.009 0 0 0 3 3h32a3 3 0 0 0 2.87-2.18 13.6 13.6 0 0 0 2.13.18 14 14 0 0 0 0-28zm-38-27a1 1 0 0 1 1-1h32a1 1 0 0 1 1 1v3h-34zm0 5h34v22.59a13.969 13.969 0 0 0 -9.41 17.41h-24.59zm33 50h-32a1 1 0 0 1 -1-1v-7h25.37a14.039 14.039 0 0 0 8.55 7.39 1 1 0 0 1 -.92.61zm5-2a12 12 0 1 1 12-12 12.01 12.01 0 0 1 -12 12z"/><path d="m33 16h-18a1 1 0 0 0 -1 1v18a1 1 0 0 0 1 1h18a1 1 0 0 0 1-1v-18a1 1 0 0 0 -1-1zm-10 2h2v3.22l-2 .5zm-7 0h5v1h-5zm16 16h-16v-13h5v2a.99.99 0 0 0 1 1 .986.986 0 0 0 .24-.03l4-1a1 1 0 0 0 .76-.97v-1h5zm0-15h-5v-1h5z"/><path d="m52.26 40.327-9.238 10.162-5.263-6.139-1.518 1.3 6 7a1 1 0 0 0 .744.35h.015a1 1 0 0 0 .74-.327l10-11z"/></svg>