<?xml version="1.0"?>
<svg xmlns="http://www.w3.org/2000/svg" id="outline" viewBox="0 0 512 512" width="20" height="20"><path d="M18.90527,422.168a8.0045,8.0045,0,0,0,6.60547,1.68848l174.584-33.57422a111.27018,111.27018,0,0,0,60.92187-33.77442L339.48828,272h8.23047L358.25,287.79688A18.42206,18.42206,0,0,0,392,277.57812V272h96a8.00039,8.00039,0,0,0,8-8V216a7.99943,7.99943,0,0,0-3.5625-6.65625l-48-32-.00439.00659c-.03077-.02051-.05616-.04687-.08741-.06714l-136-88A7.99587,7.99587,0,0,0,304,88H24a8.00066,8.00066,0,0,0-5.65723,13.65723L60.68555,144H48v16H76.68555l16,16H64v16h40v16H80v16h24v16H56v16h48v8a8.00039,8.00039,0,0,0,8,8h20.68628l-15.99976,16H24a8.00039,8.00039,0,0,0-8,8V416A7.99939,7.99939,0,0,0,18.90527,422.168ZM43.31348,104H301.6377l111.27246,72H115.31348ZM120,256V192H437.57812L480,220.28125V256H392V240a8.00235,8.00235,0,0,0-2.34277-5.65723l-24-24A8.00235,8.00235,0,0,0,360,208H213.25488a39.74237,39.74237,0,0,0-28.28515,11.71582L148.686,256ZM32,304h88a8.00235,8.00235,0,0,0,5.65723-2.34277l70.62695-70.627A23.84267,23.84267,0,0,1,213.25488,224h7.43067l-18.34278,18.34277,11.31446,11.31446L243.31445,224h17.3711l-18.34278,18.34277,11.31446,11.31446L283.31445,224h17.3711l-18.34278,18.34277,11.31446,11.31446L323.31445,224h33.37207L376,243.31348v34.26464a2.42235,2.42235,0,0,1-4.4375,1.34376L358.65625,259.5625A7.99943,7.99943,0,0,0,352,256H336a7.99725,7.99725,0,0,0-5.8623,2.55664L249.292,345.62109a95.37282,95.37282,0,0,1-52.21875,28.94825L32,406.31445Z"/><rect x="24" y="240" width="16" height="16"/><rect x="32" y="176" width="16" height="16"/><rect x="16" y="144" width="16" height="16"/><rect x="16" y="208" width="48" height="16"/></svg>
